<svg width="78" height="80" viewBox="0 0 78 80" fill="none" xmlns="http://www.w3.org/2000/svg">
<path d="M76.9187 25.1072C76.6821 24.5441 76.331 24.0364 75.8878 23.6161C75.4445 23.1959 74.9188 22.8723 74.3439 22.666C73.769 22.4597 73.1575 22.3751 72.5482 22.4176C71.9389 22.4601 71.3451 22.6287 70.8044 22.9128C68.7469 23.9913 66.7699 25.2168 64.8887 26.5797C64.8887 26.3485 64.8887 26.1178 64.8887 25.8866C64.8887 19.0213 62.1615 12.4372 57.307 7.5827C52.4525 2.7282 45.8684 0.000976563 39.0031 0.000976562C32.1378 0.000976563 25.5537 2.7282 20.6992 7.5827C15.8447 12.4372 13.1175 19.0213 13.1175 25.8866V26.5797C11.2364 25.2168 9.25936 23.9913 7.20188 22.9128C6.22776 22.3957 5.09521 22.2623 4.02758 22.5389C2.95996 22.8156 2.03475 23.4823 1.43443 24.4075C0.834104 25.3327 0.602242 26.4492 0.784569 27.537C0.966896 28.6247 1.55018 29.6046 2.41938 30.2835C6.12913 33.3125 9.41332 36.8282 12.1831 40.7353C11.6488 45.0197 10.8839 49.2721 9.89188 53.4741L6.41688 67.6153C6.38116 67.761 6.37577 67.9124 6.40103 68.0602C6.4263 68.208 6.48168 68.349 6.56373 68.4745C6.64579 68.6 6.75277 68.7072 6.87803 68.7896C7.00329 68.872 7.14416 68.9278 7.29188 68.9535L11.38 69.6666C12.1056 69.793 12.7955 70.0739 13.4031 70.4901C14.0108 70.9063 14.5219 71.4482 14.9019 72.0791L15.3988 72.9047C16.1226 74.1021 17.1731 75.068 18.4269 75.6889C19.6808 76.3098 21.0858 76.5598 22.4769 76.4097L23.4406 76.3041C24.1702 76.225 24.9082 76.3026 25.6053 76.5316C26.3024 76.7606 26.9427 77.1359 27.4831 77.6322L28.1262 78.2235C29.1772 79.1909 30.488 79.8301 31.8974 80.0625C33.3068 80.2949 34.7534 80.1104 36.0594 79.5316L36.9169 79.1516C37.5735 78.8623 38.2831 78.7128 39.0006 78.7128C39.7181 78.7128 40.4278 78.8623 41.0844 79.1516L41.9419 79.5316C43.2477 80.111 44.6944 80.2958 46.104 80.0634C47.5135 79.831 48.8243 79.1914 49.875 78.2235L50.5181 77.6322C51.0587 77.136 51.6989 76.7608 52.396 76.5318C53.0931 76.3027 53.8311 76.2251 54.5606 76.3041L55.5244 76.4097C56.9156 76.5606 58.321 76.3108 59.575 75.6898C60.829 75.0687 61.8794 74.1022 62.6025 72.9041L63.1025 72.0797C63.4824 71.4487 63.9934 70.9066 64.6011 70.4903C65.2087 70.0739 65.8987 69.793 66.6244 69.6666L70.7125 68.9535C70.8602 68.9278 71.0011 68.872 71.1263 68.7896C71.2516 68.7072 71.3586 68.6 71.4406 68.4745C71.5227 68.349 71.5781 68.208 71.6033 68.0602C71.6286 67.9124 71.6232 67.761 71.5875 67.6153L68.115 53.4828C67.1215 49.2772 66.3558 45.021 65.8212 40.7328C68.591 36.8257 71.8752 33.3101 75.585 30.281C76.3449 29.685 76.8874 28.8553 77.1285 27.9201C77.3696 26.9849 77.2958 25.9963 76.9187 25.1072ZM74.2406 28.5553C70.2363 31.8201 66.7098 35.6306 63.7644 39.8753C63.6251 40.0903 63.5656 40.3473 63.5962 40.6016C64.1431 45.1077 64.9404 49.5798 65.9844 53.9972L69.1794 66.9972L66.2419 67.5097C65.2077 67.6895 64.2242 68.0895 63.3581 68.6826C62.492 69.2757 61.7635 70.048 61.2219 70.9472L60.7219 71.7722C60.2137 72.6121 59.4766 73.2896 58.5969 73.7252C57.7173 74.1608 56.7316 74.3365 55.7556 74.2316L54.7912 74.126C53.7516 74.0124 52.6997 74.1225 51.7062 74.4489C50.7126 74.7753 49.8004 75.3105 49.0306 76.0185L48.3875 76.6097C47.6503 77.2888 46.7306 77.7376 45.7417 77.9009C44.7527 78.0641 43.7376 77.9347 42.8212 77.5285L41.9637 77.1478C41.0287 76.734 40.0175 76.5203 38.995 76.5203C37.9725 76.5203 36.9613 76.734 36.0262 77.1478L35.1687 77.5285C34.2524 77.9344 33.2373 78.0637 32.2484 77.9005C31.2595 77.7373 30.3398 77.2886 29.6025 76.6097L28.9594 76.0185C28.1896 75.3105 27.2774 74.7753 26.2838 74.4489C25.2903 74.1225 24.2384 74.0124 23.1987 74.126L22.2344 74.2316C21.2585 74.336 20.2731 74.1602 19.3935 73.7247C18.514 73.2893 17.7767 72.6122 17.2681 71.7728L16.7712 70.9472C16.2297 70.048 15.5011 69.2757 14.635 68.6826C13.7689 68.0895 12.7854 67.6895 11.7513 67.5097L8.81375 66.9972L12.0113 53.9847C13.054 49.5703 13.8505 45.1013 14.3969 40.5985C14.4275 40.3442 14.368 40.0872 14.2288 39.8722C11.2852 35.629 7.76107 31.8196 3.75938 28.5553C3.32644 28.2108 3.03759 27.7172 2.9493 27.171C2.86101 26.6248 2.97963 26.0653 3.28196 25.6019C3.5843 25.1385 4.0486 24.8045 4.5841 24.6653C5.11959 24.5261 5.68776 24.5916 6.1775 24.8491C8.76148 26.1931 11.2039 27.7932 13.4681 29.6254C13.6261 29.7562 13.8176 29.8401 14.0209 29.8673C14.2242 29.8945 14.431 29.864 14.6178 29.7793C14.8046 29.6945 14.9638 29.559 15.0773 29.3881C15.1907 29.2172 15.2538 29.0179 15.2594 28.8128C15.2831 27.8385 15.3019 26.8641 15.3019 25.8891C15.3019 19.604 17.7986 13.5763 22.2429 9.132C26.6872 4.68774 32.7149 2.19098 39 2.19098C45.2851 2.19098 51.3128 4.68774 55.7571 9.132C60.2014 13.5763 62.6981 19.604 62.6981 25.8891C62.6981 26.8641 62.7169 27.8385 62.7406 28.8128C62.7456 29.0181 62.8083 29.2179 62.9215 29.3892C63.0347 29.5606 63.1939 29.6966 63.3808 29.7817C63.5677 29.8668 63.7748 29.8975 63.9783 29.8704C64.1819 29.8434 64.3737 29.7595 64.5319 29.6285C66.796 27.7961 69.2385 26.1958 71.8225 24.8516C72.0949 24.7085 72.394 24.6236 72.7009 24.6023C73.0079 24.581 73.3159 24.6237 73.6054 24.7277C73.895 24.8317 74.1597 24.9948 74.3829 25.2065C74.6061 25.4183 74.7828 25.6742 74.9019 25.9578C75.0923 26.4033 75.1307 26.8991 75.0112 27.3686C74.8917 27.8381 74.6209 28.2552 74.2406 28.5553Z" fill="white"/>
<path d="M30.9138 13.8281C28.3938 13.8281 26.3438 16.3344 26.3438 19.4144C26.3438 22.4944 28.3938 25 30.9138 25C33.4338 25 35.4844 22.4937 35.4844 19.4144C35.4844 16.335 33.4375 13.8281 30.9138 13.8281ZM30.9138 22.8125C29.6225 22.8125 28.5312 21.2562 28.5312 19.4144C28.5312 17.5725 29.625 16.0156 30.9138 16.0156C32.2025 16.0156 33.2969 17.5719 33.2969 19.4144C33.2969 21.2569 32.2056 22.8125 30.9138 22.8125Z" fill="white"/>
<path d="M47.0856 13.8281C44.5656 13.8281 42.5156 16.3344 42.5156 19.4144C42.5156 22.4944 44.5656 25 47.0856 25C49.6056 25 51.6562 22.4937 51.6562 19.4144C51.6562 16.335 49.6062 13.8281 47.0856 13.8281ZM47.0856 22.8125C45.7944 22.8125 44.7031 21.2562 44.7031 19.4144C44.7031 17.5725 45.7944 16.0156 47.0856 16.0156C48.3769 16.0156 49.4688 17.5719 49.4688 19.4144C49.4688 21.2569 48.375 22.8125 47.0856 22.8125Z" fill="white"/>
<path d="M39 24.2969C36.35 24.2969 34.2731 27.4713 34.2731 31.5238C34.2731 35.5763 36.35 38.75 39 38.75C41.65 38.75 43.7262 35.5756 43.7262 31.5238C43.7262 27.4719 41.65 24.2969 39 24.2969ZM39 36.5625C37.8013 36.5625 36.4606 34.4075 36.4606 31.5238C36.4606 28.64 37.8013 26.4844 39 26.4844C40.1988 26.4844 41.5388 28.6394 41.5388 31.5238C41.5388 34.4081 40.1988 36.5625 39 36.5625Z" fill="white"/>
</svg>
