<svg width="86" height="85" viewBox="0 0 86 85" fill="none" xmlns="http://www.w3.org/2000/svg">
<path d="M40.1745 59.837L25.1695 44.0258C24.9721 43.8178 24.8654 43.5399 24.8729 43.2533C24.8804 42.9667 25.0015 42.6948 25.2095 42.4974L49.7578 19.2006C49.7861 19.1738 49.8143 19.147 49.8425 19.1202C54.7308 15.3948 61.1428 14.4338 69.443 16.1818C69.6574 16.2271 69.853 16.3365 70.0038 16.4954C70.1547 16.6544 70.2536 16.8554 70.2876 17.0719C71.6068 25.4584 70.3074 31.8082 66.3254 36.4933C66.3008 36.5227 66.2746 36.5506 66.2468 36.5769L41.6992 59.873C41.4919 60.0697 41.2151 60.1764 40.9294 60.1696C40.6437 60.1629 40.3723 60.0433 40.1745 59.837ZM27.482 43.3216L40.9987 57.5644L64.7206 35.052C68.1785 30.961 69.312 25.5751 68.2695 18.1554C60.9152 16.7303 55.4774 17.5807 51.2061 20.813L27.482 43.3216Z" fill="white"/>
<path d="M19.7153 41.5229C19.6125 41.4148 19.5332 41.2865 19.4823 41.1462C19.4315 41.0059 19.4103 40.8566 19.42 40.7077L19.565 38.555C19.6976 36.3619 20.4596 34.2536 21.7596 32.4824C23.0596 30.7113 24.8427 29.3524 26.8952 28.5686L27.0272 28.5193C31.4229 26.8982 36.2744 27.0353 40.5715 28.9019C40.7268 28.9797 40.861 29.0937 40.9628 29.2344C41.0646 29.3751 41.1311 29.5382 41.1565 29.71C41.182 29.8817 41.1656 30.0571 41.109 30.2213C41.0523 30.3854 40.9569 30.5335 40.8308 30.6529L29.7984 41.1229C29.6652 41.2491 29.5022 41.3394 29.3245 41.3852C29.1468 41.4309 28.9605 41.4308 28.7829 41.3846C26.1651 40.7834 23.4316 40.9234 20.889 41.7891C20.7194 41.8538 20.5363 41.8747 20.3566 41.8499C20.1768 41.8252 20.0062 41.7556 19.8604 41.6475C19.8085 41.6102 19.76 41.5685 19.7153 41.5229ZM27.2716 29.5825L27.6481 30.5949C25.9857 31.2332 24.5426 32.3373 23.4916 33.7748C22.4406 35.2123 21.8263 36.9224 21.7223 38.7001L21.6812 39.3055C23.9931 38.7441 26.3994 38.692 28.7335 39.1527L38.087 30.276C34.7054 29.2633 31.0885 29.3595 27.7655 30.5505L27.2716 29.5825Z" fill="white"/>
<path d="M42.3952 65.4222C42.3513 65.3759 42.3114 65.326 42.276 65.273C42.1757 65.1218 42.1151 64.9477 42.0998 64.7669C42.0845 64.5861 42.1149 64.4043 42.1883 64.2384C43.1858 61.7445 43.4686 59.022 43.005 56.3764C42.9682 56.1967 42.9778 56.0106 43.0328 55.8355C43.0878 55.6605 43.1864 55.5024 43.3194 55.376L54.3542 44.9038C54.4801 44.7842 54.633 44.6967 54.7999 44.6486C54.9667 44.6006 55.1427 44.5935 55.3129 44.6279C55.4831 44.6622 55.6426 44.7371 55.7777 44.8462C55.9129 44.9552 56.0198 45.0952 56.0894 45.2543C57.7287 49.6431 57.6119 54.4952 55.7633 58.8001L55.7072 58.9294C54.8171 60.9381 53.3669 62.6476 51.5302 63.8533C49.6935 65.059 47.5482 65.7096 45.3512 65.7274L43.1939 65.7597C43.0447 65.7616 42.8967 65.7326 42.7592 65.6745C42.6217 65.6164 42.4978 65.5305 42.3952 65.4222ZM45.2336 56.5403C45.5717 58.8952 45.3939 61.2955 44.7124 63.5749L45.319 63.5655C47.0991 63.5543 48.8383 63.0304 50.3283 62.0565C51.8183 61.0825 52.9961 59.6997 53.7207 58.0737L54.7609 58.3846L53.7656 57.964C55.1287 54.7079 55.4139 51.1009 54.5793 47.671L45.2336 56.5403Z" fill="white"/>
<path d="M54.2158 31.4927C53.4404 30.676 52.9246 29.6476 52.7336 28.5377C52.5427 27.4278 52.6852 26.2862 53.1431 25.2572C53.601 24.2283 54.3537 23.3583 55.3061 22.7571C56.2585 22.156 57.3678 21.8509 58.4936 21.8802C59.6194 21.9095 60.7113 22.2721 61.6311 22.922C62.5509 23.5719 63.2573 24.48 63.6609 25.5314C64.0646 26.5827 64.1475 27.7302 63.899 28.8287C63.6505 29.9272 63.0818 30.9273 62.2649 31.7025C61.1688 32.7403 59.7059 33.3011 58.197 33.2618C56.688 33.2224 55.2563 32.5862 54.2158 31.4927ZM60.9071 25.1426C60.4263 24.6357 59.806 24.2827 59.1246 24.1284C58.4433 23.9741 57.7314 24.0253 57.0792 24.2756C56.4269 24.5259 55.8635 24.964 55.4603 25.5345C55.057 26.105 54.832 26.7823 54.8138 27.4807C54.7955 28.1791 54.9848 28.8672 55.3576 29.458C55.7305 30.0489 56.2702 30.5158 56.9085 30.7999C57.5468 31.0839 58.255 31.1723 58.9435 31.0538C59.632 30.9353 60.2699 30.6153 60.7765 30.1342C61.4547 29.489 61.8493 28.6011 61.8738 27.6654C61.8983 26.7296 61.5506 25.8224 60.9071 25.1426Z" fill="white"/>
<path d="M36.1626 62.1024L22.698 47.9145C22.5006 47.7065 22.3939 47.4286 22.4014 47.142C22.4089 46.8554 22.53 46.5835 22.7379 46.3861L25.9797 43.3096C26.1877 43.1122 26.4655 43.0056 26.7521 43.0131C27.0388 43.0206 27.3107 43.1416 27.508 43.3496L40.9726 57.5376C41.17 57.7455 41.2767 58.0234 41.2692 58.31C41.2617 58.5966 41.1406 58.8685 40.9327 59.0659L37.6909 62.1424C37.4829 62.3398 37.2051 62.4464 36.9185 62.4389C36.6318 62.4314 36.3599 62.3104 36.1626 62.1024ZM25.0105 47.2102L36.9867 59.8299L38.6601 58.2418L26.6839 45.6221L25.0105 47.2102Z" fill="white"/>
<path d="M15.1693 68.6487C14.7003 68.1062 14.404 67.4362 14.3181 66.7243C14.2322 66.0125 14.3608 65.2911 14.6873 64.6528C15.5727 62.4955 16.1733 60.2321 16.4738 57.9196C17.1117 53.9714 17.6154 50.8523 24.5515 47.7723C24.7555 47.6815 24.9827 47.6561 25.2017 47.6996C25.4207 47.7432 25.6209 47.8535 25.7748 48.0154L36.2113 59.0125C36.3652 59.1746 36.4651 59.3804 36.4972 59.6016C36.5294 59.8227 36.4922 60.0485 36.3908 60.2476C35.5365 62.0717 34.3818 63.7393 32.975 65.1808C30.7621 67.2809 28.4962 67.5474 25.8729 67.8566C23.5691 68.0572 21.3004 68.5514 19.1218 69.3271C18.4715 69.6211 17.7482 69.714 17.0448 69.5939C16.3413 69.4739 15.6897 69.1464 15.1737 68.6534L15.1693 68.6487ZM24.7385 50.0644C19.5353 52.5268 19.1987 54.6079 18.609 58.2661C18.2803 60.75 17.6317 63.1811 16.6794 65.4986C16.3852 66.1906 16.4079 66.8129 16.7391 67.1619C17.0665 67.5069 17.6793 67.5574 18.3765 67.3011C20.7149 66.4673 23.1496 65.933 25.6223 65.7111C28.1345 65.4136 29.7974 65.2201 31.4889 63.6149C32.5487 62.5337 33.4342 61.2946 34.1138 59.9418L24.7385 50.0644Z" fill="white"/>
<path d="M22.5606 61.5814C22.2517 61.2289 22.0538 60.7929 21.9918 60.3283C21.9298 59.8637 22.0065 59.3912 22.2122 58.97C22.6475 57.9082 22.9432 56.7945 23.0918 55.6566C23.4169 53.6669 23.6988 51.9507 26.9449 50.3471C27.1518 50.246 27.3855 50.2136 27.6121 50.2546C27.8386 50.2956 28.0462 50.4079 28.2045 50.5751L33.7859 56.4563C33.9443 56.6232 34.0453 56.8362 34.0743 57.0645C34.1032 57.2927 34.0586 57.5242 33.947 57.7254C33.5392 58.4992 33.0175 59.2073 32.3993 59.826C31.3118 60.784 29.9166 61.32 28.4675 61.3367C27.3343 61.4365 26.2184 61.6796 25.1465 62.0604C24.7171 62.2446 24.2427 62.2977 23.7831 62.213C23.3235 62.1284 22.8992 61.9097 22.5636 61.5845L22.5606 61.5814ZM27.201 52.6586C25.6134 53.5959 25.4795 54.4175 25.2209 56.0029C25.0456 57.3109 24.7024 58.5909 24.1998 59.8111C24.1533 59.902 24.1324 60.0037 24.1393 60.1055C24.1407 60.0818 24.2385 60.0874 24.396 60.0289C25.629 59.5873 26.9133 59.3046 28.2178 59.1875C29.1985 59.2119 30.1551 58.8815 30.9117 58.257C31.1924 57.9813 31.441 57.6749 31.6529 57.3434L27.201 52.6586Z" fill="white"/>
<path d="M37.0401 47.7932C36.8428 47.5852 36.7361 47.3073 36.7436 47.0207C36.7511 46.7341 36.8721 46.4622 37.0801 46.2648L41.6769 41.9024C41.8849 41.705 42.1628 41.5984 42.4494 41.6059C42.736 41.6133 43.0079 41.7344 43.2053 41.9424C43.4027 42.1503 43.5093 42.4282 43.5018 42.7148C43.4943 43.0015 43.3733 43.2734 43.1653 43.4707L38.5685 47.8332C38.3605 48.0305 38.0827 48.1372 37.796 48.1297C37.5094 48.1222 37.2375 48.0012 37.0401 47.7932Z" fill="white"/>
<path d="M33.5617 44.0885C33.3643 43.8805 33.2577 43.6027 33.2652 43.3161C33.2727 43.0294 33.3937 42.7575 33.6017 42.5602L35.6233 40.6416C35.8312 40.4443 36.1091 40.3376 36.3957 40.3451C36.6824 40.3526 36.9543 40.4737 37.1516 40.6816C37.349 40.8896 37.4557 41.1675 37.4482 41.4541C37.4407 41.7407 37.3196 42.0126 37.1116 42.21L35.0901 44.1285C34.8821 44.3259 34.6042 44.4325 34.3176 44.425C34.031 44.4175 33.7591 44.2965 33.5617 44.0885Z" fill="white"/>
<path d="M40.5482 51.4508C40.3508 51.2429 40.2442 50.965 40.2517 50.6784C40.2592 50.3917 40.3802 50.1198 40.5882 49.9225L42.6098 48.004C42.8178 47.8066 43.0956 47.6999 43.3822 47.7074C43.6689 47.7149 43.9408 47.836 44.1381 48.0439C44.3355 48.2519 44.4422 48.5298 44.4347 48.8164C44.4272 49.103 44.3061 49.3749 44.0982 49.5723L42.0766 51.4908C41.8686 51.6882 41.5907 51.7949 41.3041 51.7874C41.0175 51.7799 40.7456 51.6588 40.5482 51.4508Z" fill="white"/>
</svg>
